<mxfile host="app.diagrams.net" agent="Mozilla/5.0 (Windows NT 10.0; Win64; x64) AppleWebKit/537.36 (KHTML, like Gecko) Chrome/128.0.0.0 Safari/537.36" version="24.7.14">
  <diagram name="第 1 页" id="a1qn02zALOitqblVjsUC">
    <mxGraphModel dx="713" dy="517" grid="1" gridSize="10" guides="1" tooltips="1" connect="1" arrows="1" fold="1" page="1" pageScale="1" pageWidth="827" pageHeight="1169" math="0" shadow="0">
      <root>
        <mxCell id="0" />
        <mxCell id="1" parent="0" />
        <mxCell id="27rtNUti7NaMmt7GCU1g-15" style="edgeStyle=orthogonalEdgeStyle;rounded=0;orthogonalLoop=1;jettySize=auto;html=1;entryX=0.5;entryY=1;entryDx=0;entryDy=0;entryPerimeter=0;" edge="1" parent="1" source="27rtNUti7NaMmt7GCU1g-1" target="27rtNUti7NaMmt7GCU1g-3">
          <mxGeometry relative="1" as="geometry">
            <mxPoint x="210" y="80" as="targetPoint" />
          </mxGeometry>
        </mxCell>
        <mxCell id="27rtNUti7NaMmt7GCU1g-16" style="edgeStyle=orthogonalEdgeStyle;rounded=0;orthogonalLoop=1;jettySize=auto;html=1;entryX=0;entryY=0.5;entryDx=0;entryDy=0;" edge="1" parent="1" source="27rtNUti7NaMmt7GCU1g-1" target="27rtNUti7NaMmt7GCU1g-4">
          <mxGeometry relative="1" as="geometry">
            <mxPoint x="300" y="135" as="targetPoint" />
          </mxGeometry>
        </mxCell>
        <mxCell id="27rtNUti7NaMmt7GCU1g-1" value="&lt;font style=&quot;font-size: 18px;&quot;&gt;母亲：辛&lt;/font&gt;" style="rounded=1;whiteSpace=wrap;html=1;" vertex="1" parent="1">
          <mxGeometry x="145" y="105" width="130" height="60" as="geometry" />
        </mxCell>
        <mxCell id="27rtNUti7NaMmt7GCU1g-3" value="&lt;font style=&quot;font-size: 18px;&quot;&gt;父亲：丙&lt;/font&gt;" style="rounded=1;whiteSpace=wrap;html=1;" vertex="1" parent="1">
          <mxGeometry x="150" y="10" width="120" height="60" as="geometry" />
        </mxCell>
        <mxCell id="27rtNUti7NaMmt7GCU1g-17" style="edgeStyle=orthogonalEdgeStyle;rounded=0;orthogonalLoop=1;jettySize=auto;html=1;entryX=0;entryY=0.5;entryDx=0;entryDy=0;" edge="1" parent="1" source="27rtNUti7NaMmt7GCU1g-4" target="27rtNUti7NaMmt7GCU1g-6">
          <mxGeometry relative="1" as="geometry">
            <mxPoint x="460" y="135" as="targetPoint" />
          </mxGeometry>
        </mxCell>
        <mxCell id="27rtNUti7NaMmt7GCU1g-4" value="&lt;font style=&quot;font-size: 18px;&quot;&gt;男命：壬&lt;/font&gt;" style="rounded=1;whiteSpace=wrap;html=1;" vertex="1" parent="1">
          <mxGeometry x="310" y="105" width="120" height="60" as="geometry" />
        </mxCell>
        <mxCell id="27rtNUti7NaMmt7GCU1g-18" style="edgeStyle=orthogonalEdgeStyle;rounded=0;orthogonalLoop=1;jettySize=auto;html=1;entryX=0.5;entryY=0;entryDx=0;entryDy=0;" edge="1" parent="1" source="27rtNUti7NaMmt7GCU1g-6" target="27rtNUti7NaMmt7GCU1g-8">
          <mxGeometry relative="1" as="geometry">
            <mxPoint x="530" y="190" as="targetPoint" />
          </mxGeometry>
        </mxCell>
        <mxCell id="27rtNUti7NaMmt7GCU1g-20" style="edgeStyle=orthogonalEdgeStyle;rounded=0;orthogonalLoop=1;jettySize=auto;html=1;exitX=0.25;exitY=1;exitDx=0;exitDy=0;entryX=0.5;entryY=0;entryDx=0;entryDy=0;" edge="1" parent="1" source="27rtNUti7NaMmt7GCU1g-6" target="27rtNUti7NaMmt7GCU1g-7">
          <mxGeometry relative="1" as="geometry" />
        </mxCell>
        <mxCell id="27rtNUti7NaMmt7GCU1g-6" value="&lt;font style=&quot;font-size: 18px;&quot;&gt;老婆：丁&lt;/font&gt;" style="rounded=1;whiteSpace=wrap;html=1;" vertex="1" parent="1">
          <mxGeometry x="470" y="105" width="120" height="60" as="geometry" />
        </mxCell>
        <mxCell id="27rtNUti7NaMmt7GCU1g-7" value="&lt;font style=&quot;font-size: 18px;&quot;&gt;儿子：戊&lt;/font&gt;" style="rounded=1;whiteSpace=wrap;html=1;" vertex="1" parent="1">
          <mxGeometry x="310" y="200" width="120" height="60" as="geometry" />
        </mxCell>
        <mxCell id="27rtNUti7NaMmt7GCU1g-8" value="&lt;font style=&quot;font-size: 18px;&quot;&gt;女儿：己&lt;/font&gt;" style="rounded=1;whiteSpace=wrap;html=1;" vertex="1" parent="1">
          <mxGeometry x="470" y="200" width="120" height="60" as="geometry" />
        </mxCell>
        <mxCell id="27rtNUti7NaMmt7GCU1g-9" value="&lt;font style=&quot;font-size: 18px;&quot;&gt;父亲：乙&lt;/font&gt;" style="rounded=1;whiteSpace=wrap;html=1;" vertex="1" parent="1">
          <mxGeometry x="155" y="290" width="120" height="60" as="geometry" />
        </mxCell>
        <mxCell id="27rtNUti7NaMmt7GCU1g-22" value="" style="edgeStyle=orthogonalEdgeStyle;rounded=0;orthogonalLoop=1;jettySize=auto;html=1;" edge="1" parent="1" source="27rtNUti7NaMmt7GCU1g-10" target="27rtNUti7NaMmt7GCU1g-9">
          <mxGeometry relative="1" as="geometry" />
        </mxCell>
        <mxCell id="27rtNUti7NaMmt7GCU1g-28" value="" style="edgeStyle=orthogonalEdgeStyle;rounded=0;orthogonalLoop=1;jettySize=auto;html=1;" edge="1" parent="1" source="27rtNUti7NaMmt7GCU1g-10" target="27rtNUti7NaMmt7GCU1g-26">
          <mxGeometry relative="1" as="geometry" />
        </mxCell>
        <mxCell id="27rtNUti7NaMmt7GCU1g-10" value="&lt;font style=&quot;font-size: 18px;&quot;&gt;母亲：庚&lt;/font&gt;" style="rounded=1;whiteSpace=wrap;html=1;" vertex="1" parent="1">
          <mxGeometry x="155" y="390" width="120" height="60" as="geometry" />
        </mxCell>
        <mxCell id="27rtNUti7NaMmt7GCU1g-25" style="edgeStyle=orthogonalEdgeStyle;rounded=0;orthogonalLoop=1;jettySize=auto;html=1;exitX=0.75;exitY=1;exitDx=0;exitDy=0;entryX=0.5;entryY=0;entryDx=0;entryDy=0;" edge="1" parent="1" source="27rtNUti7NaMmt7GCU1g-26" target="27rtNUti7NaMmt7GCU1g-14">
          <mxGeometry relative="1" as="geometry">
            <mxPoint x="410" y="460" as="sourcePoint" />
          </mxGeometry>
        </mxCell>
        <mxCell id="27rtNUti7NaMmt7GCU1g-12" value="&lt;font style=&quot;font-size: 18px;&quot;&gt;老公：丁&lt;/font&gt;" style="rounded=1;whiteSpace=wrap;html=1;" vertex="1" parent="1">
          <mxGeometry x="470" y="390" width="120" height="60" as="geometry" />
        </mxCell>
        <mxCell id="27rtNUti7NaMmt7GCU1g-13" value="&lt;font style=&quot;font-size: 18px;&quot;&gt;儿子：乙&lt;/font&gt;" style="rounded=1;whiteSpace=wrap;html=1;" vertex="1" parent="1">
          <mxGeometry x="240" y="490" width="120" height="60" as="geometry" />
        </mxCell>
        <mxCell id="27rtNUti7NaMmt7GCU1g-14" value="&lt;font style=&quot;font-size: 18px;&quot;&gt;女儿：甲&lt;/font&gt;" style="rounded=1;whiteSpace=wrap;html=1;" vertex="1" parent="1">
          <mxGeometry x="400" y="490" width="120" height="60" as="geometry" />
        </mxCell>
        <mxCell id="27rtNUti7NaMmt7GCU1g-27" style="edgeStyle=orthogonalEdgeStyle;rounded=0;orthogonalLoop=1;jettySize=auto;html=1;exitX=0.25;exitY=1;exitDx=0;exitDy=0;entryX=0.5;entryY=0;entryDx=0;entryDy=0;" edge="1" parent="1" source="27rtNUti7NaMmt7GCU1g-26" target="27rtNUti7NaMmt7GCU1g-13">
          <mxGeometry relative="1" as="geometry" />
        </mxCell>
        <mxCell id="27rtNUti7NaMmt7GCU1g-29" value="" style="edgeStyle=orthogonalEdgeStyle;rounded=0;orthogonalLoop=1;jettySize=auto;html=1;" edge="1" parent="1" source="27rtNUti7NaMmt7GCU1g-26" target="27rtNUti7NaMmt7GCU1g-12">
          <mxGeometry relative="1" as="geometry" />
        </mxCell>
        <mxCell id="27rtNUti7NaMmt7GCU1g-26" value="&lt;font style=&quot;font-size: 18px;&quot;&gt;女命：壬&lt;/font&gt;" style="rounded=1;whiteSpace=wrap;html=1;" vertex="1" parent="1">
          <mxGeometry x="320" y="390" width="120" height="60" as="geometry" />
        </mxCell>
      </root>
    </mxGraphModel>
  </diagram>
</mxfile>
